# xmcd
#
# Track frame offsets: 
#        165
#        26362
#        48637
#        72639
#        104027
#        120091
#        146389
#        182978
#        200297
#        227319
#
# Disc length: 3317 seconds
#
# Revision: 3
# Processed by: cddbd v1.5.2PL0 Copyright (c) Steve Scherf et al.
# Submitted via: ExactAudioCopyFreeDBPlugin 1.0
#
DISCID=860cf30a
DTITLE=The Weeknd - Trilogy [CDTwo: Thursday)
DYEAR=2012
DGENRE=R&B
TTITLE0=Lonely Star
TTITLE1=Life Of The Party
TTITLE2=Thursday
TTITLE3=The Weeknd (feat. Drake) - The Zone
TTITLE4=The Birds Pt. 1
TTITLE5=The Birds Pt. 2
TTITLE6=Gone
TTITLE7=Rolling Stone
TTITLE8=Heaven Or Las Vegas
TTITLE9=Valerie
EXTD=
EXTT0=
EXTT1=
EXTT2=
EXTT3=
EXTT4=
EXTT5=
EXTT6=
EXTT7=
EXTT8=
EXTT9=
PLAYORDER=
